<svg width="15" height="15" fill="#1A1D6E" xmlns="http://www.w3.org/2000/svg"><path d="M0 8.001v5.68A1.32 1.32 0 001.318 15h5.713V8.001H0zm6.024 4.491a.44.44 0 11-.622.621l-1.447-1.447-1.447 1.447a.44.44 0 11-.621-.621l1.447-1.447-1.447-1.506a.44.44 0 11.621-.621l1.447 1.447 1.447-1.447a.44.44 0 11.622.621l-1.448 1.506 1.448 1.447zM13.682 0H7.91v7.105H15V1.318A1.32 1.32 0 0013.682 0zm-.88 4.395H9.23a.44.44 0 110-.88h3.574a.44.44 0 110 .88zM1.318 0A1.32 1.32 0 000 1.318v5.787h7.031V0H1.318zm4.395 4.395H4.395v1.318a.44.44 0 11-.88 0V4.395H2.198a.44.44 0 110-.88h1.319V2.198a.44.44 0 11.879 0v1.319h1.318a.44.44 0 110 .879zM7.91 8.001V15h5.772A1.32 1.32 0 0015 13.682v-5.68H7.91zm4.893 4.362H9.229a.44.44 0 110-.879h3.574a.44.44 0 110 .88zm0-1.816H9.229a.44.44 0 110-.879h3.574a.44.44 0 110 .879z"/></svg>