<svg width="11" height="11" fill="none" xmlns="http://www.w3.org/2000/svg"><path d="M5 4.743l.602 2.227h.645l-.95-3.166L5 4.743z" fill="#000"/><path d="M6.35 1.72a.093.093 0 00-.062-.061l-1.87-.364-3.16 9.397a.083.083 0 01-.083.054c-.007 0-.02 0-.027-.006-.042-.014-.07-.062-.056-.103l3.139-9.328-1.054.507c-.02.007-.034.028-.041.048L.004 10.46c-.014.04.007.089.042.102l.935.432c.014.007.021.007.035.007h.014l2.154-.274c.035-.007.063-.028.07-.062l.526-1.843 1.545-.083 1.462-.075c.042 0 .076.02.083.062l.36 1.213c.014.04-.013.089-.055.102h-.02c-.035 0-.07-.02-.077-.061l-.346-1.152-.658.035.297 1.185a.081.081 0 00.063.062l.762.15h.014l.402-.054 1.122-.137a.073.073 0 00.062-.034c.014-.02.021-.048.014-.069L6.35 1.72zm.077 5.38a.086.086 0 01-.07.035H4.176c-.028 0-.048-.014-.07-.035-.013-.02-.02-.048-.013-.075l1.13-3.53a.078.078 0 01.076-.054c.034 0 .069.027.076.061L6.44 7.025a.094.094 0 01-.014.075zm2.536-4.42a6.22 6.22 0 01-1.157.74l.526.055h.014c.007 0 .014-.007.014-.007l.416-.192c.048-.02.125-.069.194-.11V2.68" fill="#000"/><path d="M11 .322c0-.007-.007-.014-.007-.014l-.29-.301L10.694 0v6.847a.08.08 0 01-.083.082.08.08 0 01-.083-.082V.014l-1.095.15s-.014 0-.034.007c-.014.007-.014.02-.014.02s-.007.09-.111.316c-.104.233-.153.35-.554.76-.402.412-.908.625-.936.638a.262.262 0 00-.055.035c-.007.006-.007.034-.007.034v1.295a5.877 5.877 0 001.4-.952v4.68c0 .007.006.007.006.007l1.518.124h.014s.325-.22.332-.22v-.006L11 .322z" fill="#000"/></svg>