<svg width="14" height="9" fill="none" xmlns="http://www.w3.org/2000/svg"><path d="M13.5 0H0v9h13.5V0z" fill="red"/><path d="M6.164 3.773h1.041v2.649h1.09v-2.65h1.05l.062-.891H6.1l.063.892zM3.941 6.068l.583-1.356h.063l.118 1.71H5.76L5.517 2.88H4.503l-.875 2.01H3.56l-.91-2.01h-1l-.243 3.542h1.028l.104-1.71h.063l.652 1.356h.688zm8.542-.532s-.43.055-.93.055c-.605 0-.723-.19-.723-.66v-.566c0-.483.104-.667.722-.667.445 0 .882.061.882.061l.063-.872s-.549-.075-1.028-.075c-1.264 0-1.722.41-1.722 1.403v.865c0 1.097.555 1.403 1.715 1.403.465 0 1.09-.075 1.09-.075l-.069-.872z" fill="#fff"/></svg>