<svg width="17" height="14" fill="#1A1D6E" xmlns="http://www.w3.org/2000/svg"><path d="M8.5 5.453c-1.595 0-2.889-1.22-2.889-2.727C5.611 1.221 6.905 0 8.5 0c1.595 0 2.889 1.22 2.889 2.726S10.095 5.453 8.5 5.453zm-5.844 0C1.648 5.453.83 4.68.83 3.729s.818-1.723 1.826-1.723c1.009 0 1.826.771 1.826 1.723 0 .952-.817 1.724-1.826 1.724zm11.688 0c-1.009 0-1.826-.772-1.826-1.724s.817-1.723 1.826-1.723c1.008 0 1.826.771 1.826 1.723 0 .952-.818 1.724-1.826 1.724zM12.544 7c.72-.555 1.37-.482 2.201-.482 1.244 0 2.255.95 2.255 2.115v3.423c0 .506-.438.918-.977.918-2.325 0-2.044.04-2.044-.095 0-2.425.304-4.203-1.434-5.878z"/><path d="M7.71 6.53c1.451-.113 2.713.002 3.801.85 1.822 1.377 1.471 3.231 1.471 5.5 0 .6-.517 1.097-1.162 1.097-7.009 0-7.288.213-7.703-.655-.137-.294-.1-.2-.1-3.011 0-2.232 2.048-3.78 3.692-3.78zm-5.456-.012c.836 0 1.484-.072 2.202.483C2.73 8.663 3.02 10.32 3.02 12.879c0 .136.233.095-2.01.095-.557 0-1.011-.427-1.011-.95v-3.39c0-1.167 1.011-2.116 2.254-2.116z"/></svg>