<svg width="23" height="24" fill="#FF8F17" xmlns="http://www.w3.org/2000/svg"><g clip-path="url(#clip0)"><path d="M17.486 15.877c-.752-.775-1.69-.775-2.436 0-.57.589-1.14 1.178-1.7 1.777-.152.165-.282.2-.468.09-.369-.21-.761-.38-1.115-.609-1.652-1.084-3.035-2.477-4.26-4.045-.608-.78-1.149-1.613-1.527-2.552-.076-.19-.062-.315.086-.47.57-.574 1.125-1.163 1.685-1.753.78-.819.78-1.778-.005-2.602-.445-.47-.89-.929-1.335-1.398-.46-.48-.914-.964-1.379-1.438-.75-.764-1.689-.764-2.436.005-.574.589-1.124 1.193-1.708 1.773-.541.534-.814 1.188-.871 1.952-.091 1.244.2 2.417.612 3.561.843 2.367 2.125 4.47 3.68 6.398 2.102 2.607 4.61 4.67 7.544 6.158 1.32.669 2.69 1.183 4.178 1.268 1.024.06 1.914-.21 2.628-1.044.488-.57 1.038-1.088 1.555-1.633.766-.809.77-1.788.01-2.587-.91-.954-1.824-1.903-2.738-2.852zm-.914-3.981l1.766-.315a8.363 8.363 0 00-2.206-4.444c-1.23-1.284-2.786-2.093-4.5-2.343l-.248 1.853a6.001 6.001 0 013.484 1.813 6.454 6.454 0 011.704 3.436zm2.761-8.011C17.295 1.758 14.715.415 11.867 0l-.249 1.853c2.46.36 4.69 1.523 6.452 3.356a11.954 11.954 0 013.163 6.367L23 11.262a13.898 13.898 0 00-3.667-7.377z"/></g><defs><clipPath id="clip0"><path d="M0 0h23v24H0z"/></clipPath></defs></svg>