<svg width="38" height="37" fill="none" xmlns="http://www.w3.org/2000/svg"><path d="M37.863 29.207l-2.207-6.353a15.784 15.784 0 001.63-6.951c.006-4.186-1.63-8.144-4.61-11.144A16.025 16.025 0 0021.495.002c-4.387-.069-8.51 1.582-11.61 4.648-2.99 2.957-4.647 6.855-4.7 11.02C2.24 17.864.502 21.285.507 24.94a11.51 11.51 0 001.13 4.947l-1.52 4.376a2.034 2.034 0 00.497 2.131 2.085 2.085 0 002.155.493l4.424-1.504a11.854 11.854 0 005.001 1.117h.018a11.72 11.72 0 009.444-4.75c2.3-.06 4.575-.61 6.632-1.606l6.423 2.183a2.478 2.478 0 002.56-.586 2.42 2.42 0 00.593-2.533zm-25.652 5.055h-.014a9.543 9.543 0 01-4.394-1.08 1.141 1.141 0 00-.896-.068L2.37 34.656l1.559-4.488a1.108 1.108 0 00-.07-.886 9.277 9.277 0 01-1.09-4.346 9.27 9.27 0 012.627-6.47c.547 3.298 2.136 6.336 4.598 8.73a16.03 16.03 0 008.833 4.38 9.46 9.46 0 01-6.616 2.686zm23.46-4.104a.207.207 0 01-.226.052l-6.876-2.337a1.142 1.142 0 00-.896.069 13.936 13.936 0 01-6.416 1.576h-.022c-7.486 0-13.669-6.016-13.788-13.419-.06-3.728 1.374-7.232 4.037-9.867C14.148 3.598 17.69 2.18 21.46 2.24c7.492.118 13.577 6.245 13.565 13.66a13.55 13.55 0 01-1.593 6.347 1.108 1.108 0 00-.07.886l2.363 6.802c.03.085.012.16-.052.224z" fill="#fff"/><path d="M27.973 9.948H14.496c-.624 0-1.13.5-1.13 1.119 0 .617.506 1.118 1.13 1.118h13.476c.624 0 1.13-.5 1.13-1.118 0-.618-.506-1.12-1.13-1.12zm0 4.601H14.496c-.624 0-1.13.5-1.13 1.119 0 .617.506 1.118 1.13 1.118h13.476c.624 0 1.13-.5 1.13-1.118 0-.618-.506-1.119-1.13-1.119zm-5.188 4.601h-8.288c-.624 0-1.13.5-1.13 1.119 0 .618.506 1.118 1.13 1.118h8.288c.625 0 1.131-.5 1.131-1.118 0-.618-.506-1.12-1.13-1.12z" fill="#fff"/></svg>