<svg width="38" height="25" fill="none" xmlns="http://www.w3.org/2000/svg"><path d="M37.357 2.985a1.33 1.33 0 00-1.32-.061l-8.894 4.551V4.167C27.143 1.865 25.32 0 23.07 0h-19C1.823 0 0 1.865 0 4.167v16.666C0 23.135 1.823 25 4.071 25h19c2.249 0 4.072-1.866 4.072-4.167v-3.308l8.893 4.558c.67.343 1.486.065 1.82-.621.096-.195.145-.41.144-.629V4.167c0-.482-.243-.929-.643-1.182zM24.429 20.833c0 .767-.608 1.39-1.358 1.39h-19c-.75 0-1.357-.623-1.357-1.39V4.167c0-.767.608-1.39 1.357-1.39h19c.75 0 1.357.623 1.357 1.39v16.666zm10.857-2.247l-8.143-4.166v-3.84l8.143-4.166v12.172z" fill="#fff"/><path d="M13.571 6.944c-2.998 0-5.428 2.488-5.428 5.556s2.43 5.556 5.428 5.556C16.57 18.056 19 15.568 19 12.5s-2.43-5.556-5.429-5.556zm0 8.334c-1.499 0-2.714-1.244-2.714-2.778s1.215-2.778 2.714-2.778c1.5 0 2.715 1.244 2.715 2.778s-1.216 2.778-2.715 2.778z" fill="#fff"/></svg>