<svg width="36" height="30" fill="none" xmlns="http://www.w3.org/2000/svg"><path d="M7.187 30a2.71 2.71 0 01-1.127-.247A2.617 2.617 0 014.5 27.35v-2.907H3.234C1.451 24.443 0 23.01 0 21.25V3.194C0 1.433 1.451 0 3.234 0h29.532C34.549 0 36 1.433 36 3.194V21.25c0 1.761-1.451 3.194-3.234 3.194H13.962l-4.98 4.862A2.679 2.679 0 017.187 30zM3.234 2.222a.98.98 0 00-.984.972V21.25a.98.98 0 00.984.972h2.391c.621 0 1.125.498 1.125 1.111v4.018c0 .236.156.342.25.385.09.04.262.086.436-.046l5.273-5.147c.21-.206.495-.32.791-.32h19.266a.98.98 0 00.984-.973V3.194a.98.98 0 00-.984-.972H3.234z" fill="#fff"/><path d="M22.52 19.999a1.14 1.14 0 01-.529-.13L18 17.774l-3.991 2.095a1.137 1.137 0 01-1.187-.08 1.105 1.105 0 01-.45-1.087l.765-4.454-3.24-3.152a1.102 1.102 0 01-.279-1.137c.133-.4.484-.692.906-.754l4.466-.648 1.999-4.045a1.126 1.126 0 011.01-.623c.43 0 .823.242 1.012.623l2 4.045 4.465.648c.422.062.773.354.906.754.132.4.024.841-.28 1.137l-3.239 3.152.765 4.454c.072.418-.103.84-.45 1.087-.196.14-.427.21-.659.21zM18 15.405c.181 0 .363.043.528.13l2.5 1.312-.48-2.798a1.103 1.103 0 01.319-.977l2.047-1.992-2.818-.41a1.124 1.124 0 01-.847-.611L18 7.533l-1.249 2.526c-.163.33-.48.558-.847.612l-2.818.409 2.047 1.992c.262.255.381.62.32.977l-.48 2.798 2.499-1.313c.165-.086.346-.13.528-.13z" fill="#fff"/></svg>