<svg width="25" height="25" fill="none" xmlns="http://www.w3.org/2000/svg"><g clip-path="url(#clip0)" fill="#fff"><path d="M23.291 1.978h-.899l.096-.51A1.236 1.236 0 0021.27 0H3.73a1.236 1.236 0 00-1.218 1.469l.095.509H1.71A1.71 1.71 0 000 3.687v2.46c0 1.45.858 2.765 2.185 3.35l2.886 1.273a9.076 9.076 0 005.232 3.61v3.248a2.674 2.674 0 00-2.247 1.236L6.94 20.605h-.774c-.92 0-1.766.463-2.262 1.238l-.818 1.278A1.22 1.22 0 004.115 25h16.77a1.22 1.22 0 001.028-1.879l-.818-1.278a2.674 2.674 0 00-2.262-1.238h-.774l-1.115-1.74a2.673 2.673 0 00-2.247-1.238V14.38a9.077 9.077 0 005.232-3.61l2.886-1.272A3.664 3.664 0 0025 6.147v-2.46c0-.943-.767-1.71-1.709-1.71zm-7.58 17.676l.577.903H8.712l.577-.903c.226-.352.61-.562 1.029-.562h4.365c.418 0 .802.21 1.028.562zm4.15 2.979l.578.902H4.56l.578-.902c.225-.352.61-.563 1.028-.563h12.666c.418 0 .803.21 1.028.563zm-8.093-5.006V14.62a9.066 9.066 0 001.464 0v3.007h-1.464zm.732-4.442a7.593 7.593 0 01-7.458-6.186l-1.04-5.534h16.996l-1.04 5.534a7.593 7.593 0 01-7.458 6.186zM2.776 8.157a2.198 2.198 0 01-1.311-2.01v-2.46c0-.135.11-.245.244-.245h1.174l.72 3.828c.092.49.224.966.39 1.423l-1.217-.536zm20.76-2.01c0 .87-.515 1.659-1.312 2.01l-1.217.536a9.07 9.07 0 00.39-1.423l.72-3.828h1.174c.135 0 .244.11.244.245v2.46z"/><path d="M10.908 10.46l1.592-.837 1.592.837a.732.732 0 001.063-.772l-.304-1.774 1.288-1.255a.732.732 0 00-.406-1.25l-1.78-.258-.796-1.613a.732.732 0 00-1.314 0l-.796 1.613-1.78.259a.732.732 0 00-.406 1.249l1.288 1.256-.304 1.773a.733.733 0 001.063.772zm1.282-4.316l.31-.627.31.627a.732.732 0 00.551.401l.693.1-.501.49a.732.732 0 00-.211.648l.118.69-.62-.326a.732.732 0 00-.68 0l-.62.326.118-.69a.733.733 0 00-.21-.649l-.502-.488.693-.1a.733.733 0 00.551-.402z"/></g><defs><clipPath id="clip0"><path fill="#fff" d="M0 0h25v25H0z"/></clipPath></defs></svg>