<svg width="30" height="30" fill="none" xmlns="http://www.w3.org/2000/svg"><path d="M14.947 3.812a.59.59 0 00.59-.59V.59a.59.59 0 00-1.18 0v2.632c0 .326.265.59.59.59zm14.425 16.46l-1.042-1.04a1.956 1.956 0 00-1.392-.573c-.337 0-.66.083-.946.24l-1.965-1.962.096-.095a2.048 2.048 0 00-1.027-3.448c.053-.184.081-.377.081-.574 0-.548-.213-1.062-.598-1.446a2.025 2.025 0 00-1.028-.555c.054-.184.082-.377.082-.574 0-.549-.213-1.063-.6-1.447a2.036 2.036 0 00-1.026-.554 2.052 2.052 0 00-.516-2.022 2.049 2.049 0 00-1.666-.584L13.932 4.9c-.594-.113-1.335-.187-1.803.24-.03.027-.06.058-.09.092a2.052 2.052 0 00-2.152.474 2.03 2.03 0 00-.598 1.446c0 .198.028.39.081.574-.387.08-.741.27-1.025.555a2.05 2.05 0 00-.518 2.02c-.387.08-.742.27-1.027.554-.386.386-.599.9-.599 1.447 0 .42.125.82.357 1.157a2.048 2.048 0 00-.786 3.383l.096.095-1.965 1.96a1.973 1.973 0 00-2.232.388l-1.043 1.04c-.37.37-.575.865-.575 1.392 0 .526.204 1.02.575 1.392l1.302 1.3a.59.59 0 10.834-.835l-1.302-1.3a.781.781 0 01-.23-.557.78.78 0 01.23-.557l1.043-1.04c.26-.26.66-.3.962-.118a.598.598 0 00.244.209l5.982 5.973a.589.589 0 00.285.287.781.781 0 01.196.521.78.78 0 01-.23.557l-1.041 1.04a.793.793 0 01-1.116.002L6.485 27.29a.59.59 0 00-.834.834l1.303 1.303c.383.382.886.573 1.39.573.504 0 1.008-.191 1.392-.574l1.043-1.041c.371-.37.575-.865.575-1.392 0-.376-.104-.735-.299-1.045l2.211-2.209.007-.007c.254-.261.959-.212 1.64-.165.485.034 1.025.071 1.553.01l2.421 2.419a1.96 1.96 0 00-.24.945c0 .526.204 1.02.575 1.39l1.043 1.042c.37.37.865.575 1.391.575.527 0 1.021-.204 1.392-.575l6.325-6.317c.37-.37.575-.864.575-1.392 0-.526-.204-1.02-.576-1.392zM13.712 6.06l2.56.485-1.532 1.532a3.72 3.72 0 01-.918-.668c-.488-.466-.837-1.005-.869-1.341a.511.511 0 01-.002-.059c.077-.019.282-.04.761.051zm-2.991.482a.87.87 0 011.1-.105c.192.803.877 1.53 1.185 1.825.228.218.96.873 1.7 1.053a.86.86 0 01.155.495.859.859 0 01-.865.864.86.86 0 01-.614-.253L10.72 7.765a.858.858 0 01-.252-.612c0-.232.09-.45.252-.611zM9.179 9.117a.858.858 0 01.612-.253c.233 0 .45.09.614.253l2.143 2.139a.865.865 0 01-.614 1.477.864.864 0 01-.614-.252l-1.625-1.625-.008-.007-.509-.509a.86.86 0 01-.253-.613c0-.23.09-.447.254-.61zM7.634 11.69a.861.861 0 01.613-.252.86.86 0 01.61.248l1.63 1.63a.856.856 0 01.252.61.86.86 0 01-.865.863.864.864 0 01-.614-.25l-.592-.591-1.034-1.033a.86.86 0 01-.253-.613c0-.232.09-.45.253-.612zm-1.028 3.093a.863.863 0 01.614-.253c.233 0 .451.09.614.253l.592.591a.856.856 0 01.252.611.86.86 0 01-.866.864.86.86 0 01-.614-.253l-.074-.074-.002-.003c-.002 0-.003-.002-.004-.003l-.511-.51a.867.867 0 010-1.223zm12.026 6.707a.59.59 0 00-.835-.001l-.525.524c-.499.5-1.403.436-2.277.376-.95-.066-1.93-.134-2.566.518l-2.174 2.17L4.82 19.65l1.924-1.92c.318.195.685.3 1.068.3a2.03 2.03 0 001.447-.598c.387-.385.6-.899.6-1.447v-.015h.015c.547 0 1.061-.212 1.446-.596.386-.385.6-.899.6-1.447l-.001-.015h.015a2.039 2.039 0 002.046-2.059h.016a2.03 2.03 0 001.447-.597 2.03 2.03 0 00.598-1.447c0-.383-.104-.75-.298-1.067l1.685-1.685a.866.866 0 01.495-.244.868.868 0 01.734.243.869.869 0 01.001 1.225l-.513.511-.006.005-.591.59a.59.59 0 10.834.835l.515-.515.079-.077a.87.87 0 011.224.002.856.856 0 01.253.612.86.86 0 01-.254.612l-.516.517-.592.59a.59.59 0 10.833.835l.594-.591a.86.86 0 01.613-.252.86.86 0 01.866.864.86.86 0 01-.253.612l-1.03 1.03a.59.59 0 10.835.834l.504-.505.01-.008a.859.859 0 01.612-.252.866.866 0 01.613 1.476l-.513.512v.001h-.001l-.814.814a.59.59 0 00.834.835l.398-.398 1.909 1.907-5.435 5.428-1.947-1.945c.136-.087.265-.19.387-.312l.525-.524a.59.59 0 000-.834zm9.907.73l-6.325 6.317a.783.783 0 01-.558.23.783.783 0 01-.557-.23l-1.043-1.041a.78.78 0 01-.23-.556.78.78 0 01.23-.556l6.324-6.317a.783.783 0 01.558-.23c.212 0 .41.082.558.23l1.043 1.04a.78.78 0 01.229.556.78.78 0 01-.23.557zM7.112 3.314a.588.588 0 00.834 0 .59.59 0 000-.835L5.794.333a.59.59 0 10-.834.835l2.15 2.146zm15.254.173a.592.592 0 00.418-.173l2.148-2.146a.59.59 0 10-.834-.835L21.95 2.48a.59.59 0 00.417 1.008z" fill="#fff"/><path d="M3.681 25.383a.59.59 0 00.007.835l.002.001a.586.586 0 00.833-.008.591.591 0 00-.842-.828zm16.394-4.743a.591.591 0 10-.265-1.117l-.003.002a.588.588 0 00.268 1.116z" fill="#fff"/></svg>