<svg width="30" height="26" fill="none" xmlns="http://www.w3.org/2000/svg"><path d="M23.79 0h-7.032c-3.392 0-6.152 2.722-6.152 6.067 0 3.05 2.296 5.583 5.273 6.005v2.661c0 .35.214.667.542.801a.888.888 0 00.958-.188l3.258-3.213h3.152c3.392 0 6.211-2.722 6.211-6.066C30 2.722 27.181 0 23.79 0zm-7.032 6.933a.873.873 0 01-.88-.866c0-.48.394-.867.88-.867.485 0 .879.388.879.867a.873.873 0 01-.88.866zm3.515 0a.873.873 0 01-.878-.866c0-.48.393-.867.878-.867.486 0 .88.388.88.867a.873.873 0 01-.88.866zm3.516 0a.873.873 0 01-.879-.866c0-.48.394-.867.88-.867.485 0 .878.388.878.867a.873.873 0 01-.879.866z" fill="#FF8F17"/><path d="M19.746 26c1.454 0 2.637-1.166 2.637-2.6v-3.467a.867.867 0 00-.601-.822l-5.261-1.733a.89.89 0 00-.766.1L13.52 18.95c-2.37-1.114-5.18-3.886-6.31-6.222l1.49-2.206a.857.857 0 00.102-.755L7.044 4.579a.877.877 0 00-.833-.592H2.637C1.183 3.987 0 5.14 0 6.574 0 16.56 9.62 26 19.746 26z" fill="#FF8F17"/></svg>