<svg width="25" height="25" fill="none" xmlns="http://www.w3.org/2000/svg"><g clip-path="url(#clip0)" fill="#FF8F17"><path d="M22.37 6.578c-.518.25-.735.874-.485 1.391a10.31 10.31 0 011.032 4.531c0 5.744-4.673 10.417-10.417 10.417S2.083 18.244 2.083 12.5 6.756 2.083 12.5 2.083c2.38 0 4.616.778 6.467 2.248A1.041 1.041 0 1020.263 2.7 12.52 12.52 0 0012.5 0C5.608 0 0 5.608 0 12.5S5.608 25 12.5 25 25 19.392 25 12.5c0-1.91-.417-3.74-1.24-5.438a1.04 1.04 0 00-1.39-.484z"/><path d="M12.5 4.167a1.04 1.04 0 00-1.041 1.041V12.5a1.04 1.04 0 001.041 1.041h5.209a1.042 1.042 0 000-2.083h-4.167v-6.25c0-.575-.467-1.042-1.042-1.042z"/></g><defs><clipPath id="clip0"><path fill="#fff" d="M0 0h25v25H0z"/></clipPath></defs></svg>