<svg width="27" height="27" fill="none" xmlns="http://www.w3.org/2000/svg"><g clip-path="url(#clip0)" fill="#FF8F17"><path d="M18.06 8.382l-.49-1.965a2.895 2.895 0 00-1.633-1.947c.293-.453.463-.992.463-1.57 0-1.599-1.3-2.9-2.9-2.9-1.6 0-2.9 1.301-2.9 2.9 0 .578.17 1.117.463 1.57A2.896 2.896 0 009.43 6.417l-.49 1.965a1.31 1.31 0 00.24 1.13c.252.323.63.508 1.039.508h6.56a1.31 1.31 0 001.039-.507 1.31 1.31 0 00.24-1.13zm-4.56-6.8A1.32 1.32 0 0114.818 2.9 1.32 1.32 0 0113.5 4.22a1.32 1.32 0 01-1.318-1.32A1.32 1.32 0 0113.5 1.582zm-2.943 6.856l.409-1.638c.146-.588.672-1 1.279-1h2.51c.607 0 1.133.412 1.28 1l.408 1.638h-5.886zm-1.888 14.96a2.896 2.896 0 00-1.633-1.948 2.88 2.88 0 00.464-1.57c0-1.598-1.302-2.9-2.9-2.9a2.904 2.904 0 00-2.901 2.9c0 .579.17 1.117.463 1.57A2.895 2.895 0 00.53 23.398l-.49 1.965a1.31 1.31 0 00.24 1.13c.252.322.63.507 1.039.507h6.56a1.31 1.31 0 001.04-.507 1.31 1.31 0 00.24-1.13l-.49-1.965zm-4.07-4.835a1.32 1.32 0 011.318 1.318A1.32 1.32 0 014.6 21.199a1.32 1.32 0 01-1.318-1.318A1.32 1.32 0 014.6 18.562zm-2.943 6.855l.409-1.637c.146-.589.672-1 1.279-1h2.51c.607 0 1.133.411 1.28 1l.408 1.637H1.656zm25.304-.055l-.49-1.965a2.896 2.896 0 00-1.632-1.948c.293-.453.463-.991.463-1.57 0-1.598-1.3-2.9-2.9-2.9-1.6 0-2.9 1.302-2.9 2.9 0 .579.17 1.117.462 1.57a2.895 2.895 0 00-1.632 1.948l-.49 1.965a1.31 1.31 0 00.24 1.13c.253.322.631.507 1.04.507h6.56a1.31 1.31 0 001.039-.507 1.31 1.31 0 00.24-1.13zm-4.56-6.8a1.32 1.32 0 011.32 1.318 1.32 1.32 0 01-1.32 1.318 1.32 1.32 0 01-1.318-1.318 1.32 1.32 0 011.319-1.319zm-2.942 6.855l.408-1.637c.147-.589.673-1 1.28-1h2.51c.606 0 1.133.411 1.28 1l.407 1.637h-5.885zm-2.391-8.104L14.29 15.71v-3.176a.791.791 0 00-1.582 0v3.187l-2.76 1.593a.791.791 0 00.791 1.37l2.769-1.598 2.768 1.598a.79.79 0 10.791-1.37z"/></g><defs><clipPath id="clip0"><path fill="#fff" d="M0 0h27v27H0z"/></clipPath></defs></svg>