<svg width="30" height="30" fill="none" xmlns="http://www.w3.org/2000/svg"><path d="M14.947 3.812a.59.59 0 00.59-.59V.59a.59.59 0 00-1.18 0v2.632c0 .326.265.59.59.59zm14.425 16.461l-1.043-1.04a1.956 1.956 0 00-1.391-.574c-.337 0-.66.083-.947.24l-1.964-1.962.095-.095a2.048 2.048 0 00-1.027-3.448c.053-.184.082-.377.082-.574 0-.548-.213-1.062-.599-1.446a2.025 2.025 0 00-1.027-.555c.053-.184.081-.377.081-.574 0-.549-.213-1.062-.599-1.447a2.035 2.035 0 00-1.026-.554 2.051 2.051 0 00-.517-2.022 2.049 2.049 0 00-1.666-.584L13.932 4.9c-.594-.113-1.335-.187-1.803.24a1.05 1.05 0 00-.09.092 2.052 2.052 0 00-2.153.474 2.03 2.03 0 00-.597 1.446c0 .198.027.39.08.574-.386.08-.74.27-1.025.555a2.03 2.03 0 00-.518 2.02c-.387.08-.742.27-1.027.554-.386.386-.599.9-.599 1.448 0 .419.126.819.358 1.156a2.048 2.048 0 00-.785 3.383l.095.095-1.965 1.96a1.973 1.973 0 00-2.232.388l-1.043 1.04c-.371.37-.576.865-.576 1.392 0 .527.205 1.021.576 1.392l1.301 1.3a.59.59 0 10.834-.835l-1.301-1.3a.781.781 0 01-.23-.557.78.78 0 01.23-.557l1.042-1.04a.79.79 0 01.963-.118.593.593 0 00.244.209l5.982 5.973a.59.59 0 00.284.288.78.78 0 01.197.52.78.78 0 01-.23.557l-1.042 1.04a.793.793 0 01-1.115.002L6.485 27.29a.59.59 0 00-.835.834l1.303 1.303c.383.382.887.573 1.39.573.505 0 1.009-.191 1.393-.573l1.042-1.042c.371-.37.576-.865.576-1.392 0-.376-.105-.735-.3-1.045l2.212-2.208.007-.008c.253-.261.958-.212 1.64-.165.485.034 1.025.071 1.552.01l2.422 2.419a1.96 1.96 0 00-.241.945c0 .526.204 1.02.575 1.39l1.043 1.042c.37.37.865.575 1.392.575.526 0 1.02-.204 1.392-.575l6.324-6.317c.371-.37.576-.864.576-1.391s-.205-1.022-.576-1.392zM13.712 6.06l2.56.484-1.532 1.532a3.719 3.719 0 01-.919-.668c-.487-.466-.836-1.005-.868-1.341a.511.511 0 01-.003-.059c.077-.019.282-.04.762.052zm-2.992.48a.87.87 0 011.101-.104c.192.803.877 1.53 1.185 1.825.228.219.96.873 1.7 1.053a.86.86 0 01.154.495.858.858 0 01-.865.864.86.86 0 01-.613-.252L10.72 7.764a.858.858 0 01-.251-.612c0-.232.089-.45.251-.611zM9.178 9.118a.858.858 0 01.612-.252c.233 0 .451.09.615.253l2.142 2.138a.865.865 0 01-.614 1.477.864.864 0 01-.613-.251l-1.626-1.626-.008-.007-.508-.509a.86.86 0 01-.253-.612c0-.232.09-.448.253-.611zM7.633 11.69a.861.861 0 01.614-.251c.231 0 .447.088.609.247l1.63 1.63a.856.856 0 01.252.611.86.86 0 01-.865.863.864.864 0 01-.614-.252l-.591-.59-1.034-1.033a.86.86 0 01-.253-.613c0-.232.09-.449.252-.612zm-1.027 3.093a.863.863 0 01.614-.253c.233 0 .45.09.614.253l.592.591a.856.856 0 01.252.611c0 .232-.09.45-.254.612a.86.86 0 01-.612.253.86.86 0 01-.614-.254l-.074-.074-.003-.003-.003-.003-.512-.509a.867.867 0 010-1.224zm12.025 6.707a.59.59 0 00-.834 0l-.525.524c-.5.498-1.403.436-2.277.375-.95-.066-1.931-.134-2.566.518l-2.174 2.17L4.82 19.65l1.923-1.92c.318.195.685.3 1.069.3a2.03 2.03 0 001.447-.598c.386-.385.6-.899.6-1.447l-.001-.015h.015c.548 0 1.062-.212 1.446-.596.387-.385.6-.899.6-1.447v-.015h.015a2.039 2.039 0 002.046-2.059h.015c.549 0 1.063-.212 1.448-.597a2.03 2.03 0 00.598-1.447c0-.383-.105-.75-.299-1.067l1.686-1.685a.866.866 0 01.495-.244.868.868 0 01.733.243.869.869 0 01.002 1.225l-.514.511-.005.005-.591.59a.59.59 0 10.834.835l.515-.514.078-.078a.87.87 0 011.225.003.856.856 0 01.252.61c0 .232-.09.45-.253.613l-.517.517-.591.59a.59.59 0 10.832.836l.595-.592a.86.86 0 01.612-.252.86.86 0 01.866.864c0 .232-.09.45-.253.612l-1.03 1.03a.59.59 0 00.835.834l.505-.505.009-.008a.86.86 0 01.612-.252.867.867 0 01.613 1.476l-.512.513h-.001l-.815.814a.59.59 0 00.834.835l.399-.398 1.908 1.907-5.434 5.428-1.948-1.945c.136-.087.266-.19.388-.312l.525-.524a.59.59 0 000-.834zm9.907.73l-6.325 6.317a.783.783 0 01-.557.23.783.783 0 01-.558-.23l-1.043-1.041a.78.78 0 01-.229-.556.78.78 0 01.23-.556l6.324-6.317a.783.783 0 01.558-.23c.211 0 .41.082.558.23l1.042 1.04a.78.78 0 01.23.557.779.779 0 01-.23.556zM7.112 3.315a.588.588 0 00.835-.001.59.59 0 00-.001-.835L5.796.333a.59.59 0 10-.834.836l2.15 2.146zm15.254.172a.591.591 0 00.418-.172l2.148-2.147a.59.59 0 10-.834-.835L21.95 2.48a.59.59 0 00.417 1.007z" fill="#FF8F17"/><path d="M3.681 25.383a.59.59 0 00.007.835l.002.001a.586.586 0 00.833-.008.591.591 0 00-.842-.828zm16.394-4.743a.59.59 0 10-.266-1.117l-.003.002a.589.589 0 00.268 1.116z" fill="#FF8F17"/></svg>